<?xml version="1.0" encoding="UTF-8"?>
<svg version="1.1" viewBox="0 0 31 31" xmlns="http://www.w3.org/2000/svg">
 <defs>
  <filter id="c" x="-.36" y="-.36" width="1.72" height="1.72" color-interpolation-filters="sRGB">
   <feGaussianBlur stdDeviation="2.46429"/>
  </filter>
  <linearGradient id="d" x1="131.75" x2="111.82" y1="738.97" y2="716.11" gradientUnits="userSpaceOnUse">
   <stop stop-color="#646464" offset="0"/>
   <stop stop-color="#aaa" offset="1"/>
  </linearGradient>
 </defs>
 <g transform="matrix(.90129 0 0 .90129 -60.324 -646.32)" fill-rule="evenodd">
  <path transform="translate(-37.5 7.1429)" d="m137.5 727.18a15.893 15.893 0 1 1 -31.786 0 15.893 15.893 0 1 1 31.786 0z" fill="url(#d)" stroke="#505050" stroke-width="1.6643"/>
  <path transform="matrix(1.0137 0 0 .9248 -33.944 63.092)" d="m122.14 721.65a8.2143 8.2143 0 1 1 -16.429 0 8.2143 8.2143 0 1 1 16.429 0z" fill="#bbb" fill-opacity=".74902" filter="url(#c)"/>
 </g>
 <g transform="matrix(1.3308 0 0 1.3308 -5.3518 -7.8213)" opacity=".48024">
  <path d="m15.271 20.082h-0.44043c-0.01433-0.79492 0.02148-1.3893 0.10742-1.7832 0.09309-0.39387 0.32584-0.93456 0.69824-1.6221 0.37955-0.69465 0.62662-1.2497 0.74121-1.665 0.12174-0.42252 0.18261-0.94172 0.18262-1.5576-6e-6 -0.95246-0.1862-1.6543-0.55859-2.1055-0.3724-0.45116-0.81283-0.67674-1.3213-0.67676-0.38672 1.4e-5 -0.71257 0.10386-0.97754 0.31152-0.20052 0.15757-0.30078 0.32228-0.30078 0.49414-3e-6 0.1146 0.06803 0.29363 0.2041 0.53711 0.30794 0.55144 0.46191 1.0205 0.46191 1.4072-4e-6 0.35092-0.12175 0.64454-0.36524 0.88086-0.23633 0.23634-0.53353 0.3545-0.8916 0.35449-0.40104 1e-5 -0.73763-0.13964-1.0098-0.41894-0.27214-0.28645-0.4082-0.66242-0.4082-1.1279-1e-6 -0.84504 0.36523-1.5862 1.0957-2.2236 0.73047-0.63736 1.751-0.95604 3.0615-0.95605 1.3893 1.49e-5 2.4456 0.33302 3.1689 0.99902 0.73046 0.65887 1.0957 1.4574 1.0957 2.3955-1e-5 0.68035-0.18621 1.3106-0.55859 1.8906-0.3724 0.57293-1.0921 1.2103-2.1592 1.9121-0.71615 0.47266-1.1888 0.89519-1.418 1.2676-0.22201 0.36524-0.35808 0.92742-0.4082 1.6865m-0.11816 1.5684c0.47981 3e-6 0.88801 0.1683 1.2246 0.50488 0.33658 0.33659 0.50488 0.74479 0.50488 1.2246-7e-6 0.47982-0.1683 0.8916-0.50488 1.2354-0.3366 0.33659-0.7448 0.50488-1.2246 0.50488-0.47982-1e-6 -0.88803-0.1683-1.2246-0.50488-0.33659-0.34375-0.50489-0.75553-0.50488-1.2354-3e-6 -0.47982 0.16829-0.88802 0.50488-1.2246 0.33658-0.33659 0.74479-0.50488 1.2246-0.50488"/>
 </g>
 <path d="m15.343 19.101h-0.58611c-0.01907-1.0578 0.02858-1.8489 0.14295-2.373 0.12388-0.52415 0.43362-1.2437 0.9292-2.1586 0.50509-0.92442 0.83388-1.663 0.98638-2.2158 0.162-0.56227 0.24301-1.2532 0.24302-2.0728-8e-6 -1.2675-0.24779-2.2015-0.74336-2.8019-0.49558-0.60039-1.0817-0.90059-1.7583-0.9006-0.51464 1.86e-5 -0.94826 0.13821-1.3009 0.41456-0.26685 0.20968-0.40027 0.42888-0.40027 0.65759-4e-6 0.1525 0.09053 0.39076 0.27161 0.71477 0.40979 0.73384 0.61469 1.3581 0.6147 1.8727-5e-6 0.467-0.16202 0.85773-0.48604 1.1722-0.3145 0.31451-0.71 0.47176-1.1865 0.47174-0.5337 1.3e-5 -0.98162-0.18582-1.3438-0.55752-0.36215-0.3812-0.54322-0.88153-0.54322-1.501-2e-6 -1.1245 0.48604-2.1109 1.4581-2.9591 0.97208-0.84817 2.3301-1.2723 4.0742-1.2723 1.8489 1.98e-5 3.2546 0.44317 4.2171 1.3295 0.97207 0.8768 1.4581 1.9394 1.4581 3.1879-1.3e-5 0.90538-0.2478 1.744-0.74336 2.516-0.49558 0.76243-1.4534 1.6106-2.8734 2.5446-0.95303 0.629-1.205 1.1913-1.51 1.6868-0.29544 0.48605-0.47652 1.2342-0.54322 2.2444m-0.53425 2.0871c0.63852 4e-6 1.1817 0.22396 1.6297 0.67188 0.44791 0.44792 0.67187 0.99114 0.67188 1.6297-9e-6 0.63853-0.22397 1.1865-0.67188 1.644-0.44793 0.44792-0.99115 0.67188-1.6297 0.67188-0.63853-1e-6 -1.1818-0.22396-1.6297-0.67188-0.44792-0.45745-0.67188-1.0054-0.67188-1.644-4e-6 -0.63852 0.22396-1.1817 0.67188-1.6297 0.44791-0.44792 0.99114-0.67188 1.6297-0.67188" fill="#fff"/>
</svg>
