<?xml version="1.0" encoding="UTF-8"?>
<svg width="131.2" height="131.2" fill-rule="evenodd" image-rendering="optimizeQuality" shape-rendering="geometricPrecision" text-rendering="geometricPrecision" viewBox="0 0 12.5915 12.5915" xmlns="http://www.w3.org/2000/svg">
 <g transform="matrix(.44385 0 0 .44385 3.5014 3.5014)">
  <path d="m6.29577,0c3.47651,0 6.29577,2.81926 6.29577,6.29577s-2.81926,6.29577-6.29577,6.29577-6.29577-2.81926-6.29577-6.29577 2.81926-6.29577 6.29577-6.29577zm.94617,4.51008v5.59696h.74624v.66629h-.13324-3.25159v-.66629h.74628v-4.93067h-.74628v-.66629h.13327 2.50531zm-1.94563-1.75903c0-.23988.08665-.45532.25988-.64633s.39757-.28651.67296-.28651h.13327c.23097,0 .4442.0844.63963.25321s.29317.39533.29317.67963c0,.23985-.08437.45528-.25318.6463s-.39533.28651-.67962.28651h-.13327c-.23097,0-.4442-.0844-.63963-.25318s-.29321-.39536-.29321-.67962z" fill="#ef7900"/>
 </g>
</svg>
