<?xml version="1.0" encoding="UTF-8"?>
<svg viewBox="0 0 744.09447 1052.362179" xmlns="http://www.w3.org/2000/svg">
 <g transform="matrix(1.0172 0 0 1.0172 -2.1809 -14.066)">
  <path d="m131.37 193.79h507.26a2.7988 2.7988 0 0 1 2.7988 2.7988v618.69a2.7988 2.7988 0 0 1 -2.7988 2.7988h-507.26a2.7988 2.7988 0 0 1 -2.7988 -2.7988v-618.69a2.7988 2.7988 0 0 1 2.7988 -2.7988" fill="#faff65" fill-opacity=".6395" stroke="#000" stroke-linecap="round" stroke-linejoin="round" stroke-width="3"/>
  <path transform="translate(57 6.4286)" d="m258.57 234.51a29.286 29.286 0 1 1 -58.571 0 29.286 29.286 0 1 1 58.571 0z" fill="#fff" stroke="#000" stroke-linecap="round" stroke-linejoin="round" stroke-width="3"/>
  <path transform="translate(-41.571 6.4286)" d="m258.57 234.51a29.286 29.286 0 1 1 -58.571 0 29.286 29.286 0 1 1 58.571 0z" fill="#fff" stroke="#000" stroke-linecap="round" stroke-linejoin="round" stroke-width="3"/>
  <path transform="translate(352.71 6.4286)" d="m258.57 234.51a29.286 29.286 0 1 1 -58.571 0 29.286 29.286 0 1 1 58.571 0z" fill="#fefefe" stroke="#000" stroke-linecap="round" stroke-linejoin="round" stroke-width="3"/>
  <path transform="translate(254.14 6.4286)" d="m258.57 234.51a29.286 29.286 0 1 1 -58.571 0 29.286 29.286 0 1 1 58.571 0z" fill="#fff" stroke="#000" stroke-linecap="round" stroke-linejoin="round" stroke-width="3"/>
  <path d="m162.29 368.08h442.86" fill="none" stroke="#000" stroke-width="3"/>
  <path d="m162.29 448.36h442.86" fill="none" stroke="#000" stroke-width="3"/>
  <path d="m162.29 528.65h442.86" fill="none" stroke="#000" stroke-width="3"/>
  <path d="m162.29 608.93h442.86" fill="none" stroke="#000" stroke-width="3"/>
  <path d="m162.29 769.51h442.86" fill="none" stroke="#000" stroke-width="3"/>
  <path d="m162.29 689.22h442.86" fill="none" stroke="#000" stroke-width="3"/>
  <path d="m173.77 162.42v10.285c0 3.6143 0.8458 5.5485 1.624 8.6612 0.86709 3.4684-1.4605 5.3007-2.1653 8.1199-0.6546 2.6184 0.36388 5.3125 0.812 7.1049 0.58411 2.3365-0.61061 4.3918 0.06766 7.1049 0.67193 2.6877 1.5729 5.5498 1.1503 7.2402-0.83299 3.3319-1.4886 4.3136-1.4886 7.7816 0 3.9269-0.3223 4.5207 3.248 5.4133 1.2232 0.30579 2.1189 4.8255 3.248 5.9546 2.7764 2.7764 2.7885 5.4542 5.9546 7.0372 2.6495 1.3248 5.2316-2.1035 6.4959-3.7893 1.5842-2.1123 1.3859-3.248 5.4133-3.248 0.70975 0 4.9572-3.8319 5.9546-4.3306 2.2006-1.1003 1.746-5.4994 1.2857-8.2552-0.58275-3.4883-1.8466-6.0544-1.8947-8.5259-0.04104-2.1121-0.60899-6.4328-0.60899-8.3906 0-3.9241-0.22902-2.8992-0.40599-6.2253-0.12336-2.3184-0.48253-6.1898 0-8.1199 0.61248-2.4499 0.54132-5.0788 0.54132-8.1199 0-3.6944-4.279-8.412-6.4959-11.368-1.6932-2.2576-2.3472-3.3389-5.4133-4.872-2.8575-1.4287-6.5063-1.0826-9.7439-1.0826h-2.1653" fill="#fff" fill-rule="evenodd"/>
  <path d="m274.99 151.05c-4.1755 0-3.3247 5.2598-2.1653 7.5786 0.87143 1.7429 2.5075 3.9323 2.7066 4.3306 1.2278 2.4557 0.2334 1.9319-1.624 3.7893-2.4922 2.4922-4.3306 3.5187-4.3306 7.5786 0 3.4514 0.96136 5.432 2.1653 7.0372 0.23036 0.30715 1.3839 5.8369 1.624 7.0373 0.92318 4.6159-0.74562 1.8912 1.015 6.0899 1.1022 2.6285 1.218 5.2753 1.218 7.9846 0 3.2822 0.47366 2.0222 0.47366 5.9546 0 2.9425-0.54133 5.1793-0.54133 8.1199 0 3.3513 0.02939 4.9013 1.624 6.4959 1.8418 1.8418 2.3422 3.5159 4.872 5.4133 2.0049 1.5037 4.693 1.0827 7.5786 1.0827 2.7429 0 6.2-0.06136 8.1199-0.54133 2.0098-0.50244 1.9944-2.7066 5.9546-2.7066 0.79802 0 1.624-5.9278 1.624-7.0372 0-2.936-4.3605-5.8353-4.5336-8.7966-0.23408-4.0709 0.61589-3.4441 0.406-7.7816-0.07118-1.448 0.33833-5.5906 0.33833-7.2402 0-3.0718 0.88003-4.0614 1.624-7.0373 0.71289-2.8516 0.42272-6.0215 1.0827-8.6612 0.70361-2.8144 0.54748-4.8966 1.0826-7.0372 0.62405-2.4962-0.54132-5.4478-0.54132-8.1199v-3.7893c0-2.7306-6.1891 0.84816-8.1199-1.0827-2.3473-2.3473-6.3697-3.7388-9.2026-4.872-2.1268-0.85071-3.555-1.624-6.4959-1.624-1.9093 0-4.1733-1.2747-5.9546-2.1653z" fill="#fff" fill-rule="evenodd"/>
  <path transform="translate(155.57 6.4286)" d="m258.57 234.51a29.286 29.286 0 1 1 -58.571 0 29.286 29.286 0 1 1 58.571 0z" fill="#fefffd" stroke="#000" stroke-linecap="round" stroke-linejoin="round" stroke-width="3"/>
  <path d="m375.14 152.68c0 3.0597 1.8047 4.5123 2.7066 8.1199 1.325 5.3002-2.5471 8.0877-5.4133 11.909-2.2933 3.0577 0.06554 7.6441 2.1653 9.7439 2.0386 2.0386 2.0904 4.6302 1.624 6.4959-0.93791 3.7517-2.03 2.8625-2.03 7.9169 0 3.4816 0.37744 2.3879 0.40599 6.2929 0.0129 1.7637 0.11421 5.7348 0.54133 7.4432 0.70732 2.8293 1.0826 5.0666 1.0826 8.1199 0 2.079 3.988 4.7006 5.4133 5.4133 3.602 1.801 6.0297 2.1653 10.285 2.1653 3.3908 0 5.0696-2.4289 6.4959-4.3306 1.424-1.8987 4.9145-0.02127 7.0372-1.0827 1.7594-0.87972-1.9623-6.697-1.9623-8.3229 0-2.9634 0.203-4.7562 0.203-7.6462 0-3.1582-0.25421-4.7037-0.203-8.1199 0.04092-2.73 1.04-5.9045-0.203-8.3906-1.3724-2.7448 0.40714-6.7643-1.0826-9.7439-1.8635-3.7271-1.6384-6.2325-5.4133-8.1199-2.3857-1.1929-4.1572-3.9838-5.4133-6.4959-1.6126-3.2252-3.5406-5.1646-5.9546-7.5786-1.4776-1.4776-4.8315-2.1451-5.9546-2.7066-2.0664-1.0332-1.4255-1.0827-4.3306-1.0827z" fill="#fff" fill-rule="evenodd"/>
  <path d="m469.33 174.33c-3.726-1.863-1.0827 8.2847-1.0827 12.451v8.1199c0 3.1149-0.37219 5.8194-1.0826 8.6612-0.71399 2.856 0.74424 4.6016 0 7.5786-0.61884 2.4754-0.54133 5.5946-0.54133 8.1199 0 3.3014 1.252 3.6963 3.7893 4.3306l8.6612 2.1653c2.3256 0.58141 7.8904-0.48397 10.285-1.0827 3.7956-0.94889 4.5744-2.058 5.4133-5.4133 1.1942-4.7766-5.4464-3.3025-3.9246-10.556 0.79048-3.7678 0.8374-2.8928 2.639-6.4959 1.3022-2.6045 5.0749-4.9276 5.0749-7.8492 0-3.0233 0.54133-6.5154 0.54133-9.7439 0-3.2643-0.5131-5.9264-2.1653-7.5786-1.5478-1.5478-6.3766-1.0827-8.6612-1.0827-0.01163 0-8.9031-7.2983-11.368-8.1199-4.5014-1.5004-10.82-2.7-5.4133 2.7066 0.46004 0.46004 1.0826 0.72177 1.624 1.0826" fill="#fff" fill-rule="evenodd"/>
  <path d="m565.15 174.87c1.5575 1.5575 2.7066 7.7641 2.7066 11.909 0 2.7929-1.1715 5.0578-0.54133 7.5786 0.66958 2.6783 1.7593 5.2354 1.7593 8.1199 0 1.7109-0.0624 6.0275 1.4886 7.5786 0.65967 0.65967 0.62538 7.2054 1.0827 8.1199 1.1393 2.2786 2.5371 4.7024 4.3306 6.4959 2.009 2.009 3.4375 2.1653 6.4959 2.1653 3.9837 0 5.158-2.3663 7.0373-4.8719 2.2672-3.0229 0.14992-10.585 1.0826-12.451 0.30684-0.61368 4.854-4.0358 5.0073-4.6013 1.4003-5.1661 1.7593-7.588 4.7366-9.4732 3.1328-1.9837 1.0826-6.473 1.0826-10.285v-8.6612c0-2.9966-7.3198-2.1653-9.7439-2.1653-3.5169 0-7.1749-1.0827-10.827-1.0827-3.0311 0-6.4713-0.94117-9.2026-1.624-0.55358-0.13839-1.0827-0.36088-1.624-0.54133" fill="#fff" fill-rule="evenodd"/>
  <path d="m172.56 193.7c2.1712 1.8914 1.0173 4.9932 1.0173 8.571 0 1.6945 1.0522 3.9147 1.0522 6.8963 0 3.5061-0.54183 4.3554-1.5259 6.4283" fill="none" stroke="#000" stroke-linecap="round" stroke-width="2.8928"/>
  <path d="m202.59176,193.74934c.41675.06482-.53297-.16956-.406.33834 .10747.42987-.06265.92228-.13533,1.28565-.13129.65648-.23582,1.42501-.06766,2.09764l.13533.54133c.18873.75492.47366,1.17859.47366,1.96231 0,.45357-.38407.90537-.47366,1.35332-.09946.49728.33908.8135.54133,1.21799 .19507.39015.1745.83335.27066,1.21798 .11835.4734.44708.95699.74432,1.35332 .26638.35517.33833.70292.33833,1.15032v1.42099c0,.40734-.04008.83699-.13533,1.21798-.09852.39409 0,.94908 0,1.35332 0,.53117.1381,1.22905.27067,1.75931 .11489.45959.23116.857.33832,1.28566 .09179.36715.13534.55957.13534.94732 0,.4526-.06767.85753-.06767,1.28565v1.15032c0,.27592.279.54967.406.67666 .03566.03566.09022.04511.13533.06767 .27567.13784.50239.16406.67666.33833l.60899.60899c.1624.1624.35534.22001.47366.33833" fill="none" stroke="#000" stroke-linecap="round" stroke-width="3"/>
  <path d="m272.95425,193.73917c-.17969.35079.45873.08893.81813.26432 .35824.17484.57984.56595.81631.79677 .19418.18953.20548.80224.2721,1.06236 .07416.28953 0,.69574 0,.99596 0,.40044.19246.47449.2721.86317 .07072.34507-.13605.73859-.13605,1.12875v.99595c0,.42781.01536.8546-.06802,1.26156-.10583.51647.3937,1.71222.61223,1.92552 .35152.3431.61224-.0007.61224.73037 0,.4429-.03786.78957-.20408,1.19515-.14846.36226-.06802.86862-.06802,1.26155v1.46074 1.19516 1.12875 1.12876c0,.41215.07512.54503.20408.79676 .15837.30916.26459.70107.34013.99597 .08653.33783-.36629.5567-.47619.66397-.12743.12438-.686.20888-.81344.33326" fill="none" stroke="#000" stroke-linecap="round" stroke-linejoin="round" stroke-width="2.9796"/>
  <path d="m302.46666,193.81701c-.12146-.04277-.79248.14737-1.01499.203-.09715.02429-.31249.3703-.33833.47366-.08107.32425-.32276.61437-.406.94732-.07843.31375-.04694.66143-.13533,1.01499-.07962.3185.01102.7884.06766,1.01499 .1204.48158.17327.93399.27067,1.42099 .10811.54056.13533,1.05315.13533,1.62398v1.48865c0,.49951-.06767,1.03909-.06767,1.55631 0,.49271-.17008.81383-.33833,1.15032s-.13533,1.02685-.13533,1.48865v2.02998c0,.47557.01025.83248.203,1.21799 .22227.44453.36407.44792-.13533.94732-.25787.25787-.13533.93932-.13533,1.28565 0,.40079.19804.59908.33833.87966 .22055.44111.33833.47313.33833,1.01499 0,.39063.1788.76361.33833,1.08265 .17582.35164.31022.72941.47366.94733 .23236.30982.32136.4567.60899.74432 .21797.21797.39324.61635.74433.87966 .32021.24016.60093.33027.81199.54133 .21854.21854.49115.28378.74432.47366 .27887.20915.63541.6288.87966.81199" fill="none" stroke="#000" stroke-linecap="round" stroke-width="3"/>
  <path d="m374.53086,193.68168c.71747.5655-.82436.35669-.67666.81199 .12995.40062.97226-.01778 1.15032.33833 .1929.3858-.7333,1.17386-.81199,1.48865-.09422.37689-.1143.72787-.203,1.08266-.10899.43594.06767.91221.06767,1.35331 0,.45494.03603.82078.13533,1.21799 .11057.44227.23192.72468.33833,1.15032 .1174.46962.60899.6441.60899,1.15032 0,.40098-.11074.71364-.203,1.08266-.1114.4456.12511.72388.27067,1.01499 .21451.42902.33833.64843.33833,1.15032 0,.41278-.203.6725-.203,1.08265 0,.38445.04955.67185.13533,1.01499 .07761.31043.44465.5606.54133.94732 .07055.28223-.13351.80468-.203,1.08266-.07377.29506 0,.70904 0,1.01499 0,.36625.406.5473.406.94732 0,.33256-.0092.71344-.06767.94732-.04706.18824-.33646.47179-.47366.60899" fill="none" stroke="#000" stroke-linecap="round" stroke-width="3"/>
  <path d="m404.43919,193.68169c-.20894.00382-.74498.27131-.94732.47365-.1732.17321-.06767.78164-.06767,1.01499 0,.31754-.27066.61291-.27066,1.01499v1.01499 1.08265c0,.47193.13533.86647.13533,1.35332 0,.52156-.08261,1.07478-.20299,1.55632-.10555.42217-.16716.68068 0,1.01499 .2396.4792.41374.9783.54132,1.48865 .15032.60127-.00255,1.09287-.13533,1.62398-.14651.58604-.40599.97004-.40599,1.62398 0,.67767.02248,1.20653.27066,1.82698 .14068.35171.06766.84106.06766,1.21799 0,.40373-.24387.90784-.33832,1.28565-.07297.29184.01957.75497.06766.94732 .10661.42646.00761.75954.203,1.15032 .13833.27667.19563.78251.27066,1.08266 .09017.36068.19195.70013.27067,1.01499 .07376.29506 0,.70904 0,1.01498 0,.41684.3102.69951.40599,1.08266 .0706.28238.42887.5194.54133.74432 .09756.19513.03072.79956.06766.94733 .05388.21548.26909.4705.406.74432" fill="none" stroke="#000" stroke-linecap="round" stroke-width="3"/>
  <path d="m467.84216,193.68168c.32396.11412.5047.6034.74432,1.08265 .49869.99738-.95375,2.5906-1.21798,3.3833-.27863.83589-.67666,1.55269-.67666,2.43597 0,.76587.94732,1.16335.94732,1.96232 0,.45504.06767.94869.06767,1.42098v.27066c0,.43205-.06767.9037-.06767,1.35332v1.42099c0,.52336-.203,1.0585-.203,1.62398 0,.51196.406.68441.406,1.21798 0,.29015-.203.62979-.203,1.01499 0,.43411.011.78451-.13533,1.15032-.13123.32807-.06767.84879-.06767,1.21799 0,.38711-.06766.69272-.06766,1.08266v1.08265c0,.42622-.2499.66126-.33833,1.01499-.06233.24929-.86583.97399-.94733,1.08265" fill="none" stroke="#000" stroke-linecap="round" stroke-width="3"/>
  <path d="m498.56248,193.68168c-.43528.1725-1.22892.49757-1.08265,1.08265 .09148.36591.10655.52113 0,.94733-.13095.52379-1.19838.69563-1.48865,1.08265-.20238.26985-.13533.75396-.13533,1.08266 0,.3679-.45142.77839-.67666.94732-.34941.26206-.47366.51609-.47366.94732 0,.5036-.26756.87344-.47366,1.28566-.15663.31325-.60603.53539-.74433.81199-.15534.31067-.18518.7407-.27066,1.08265-.09875.39499-.17538.76916-.27067,1.15032-.1056.4224-.57065.97666-.87965,1.28565l-.87966.87966c-.39196.39196-.54133.68373-.54133,1.21799 0,.42826-.10126.67619-.27066,1.01499s-.37487.55214-.47366.94732c-.0836.3344 0,.80059 0,1.15032 0,.40609.05329.61914.13533.94732 .05777.23109.35247.62313.54133.81199 .0551.05511 1.94025.72377 1.9623.81199" fill="none" stroke="#000" stroke-linecap="round" stroke-width="3"/>
  <path d="m567.10806,193.81701c.43669-.04628 1.50848-.09567 1.75931.406 .20484.40966-.06766,1.264-.06766,1.69165 0,.70244-.0342,1.2165.13533,1.89464l.06767.27066c.03982.15931.09022.31578.13533.47367 .336,1.17602-.41111,2.05042-.67666,3.11263-.14761.59045-.18547.90303.203,1.42098 .09569.12759.22555.22556.33833.33833 .30976.30977.58045.90083.67666,1.28565 .10028.40115.06766.85693.06766,1.28566 0,.60797.13308,1.00596.27067,1.55631 .09647.3859.17473.89079.33832,1.21799 .17971.35942.02788.80008.203,1.15032 .15031.30062.06767.8615.06767,1.21799s.19262.89544.27066,1.28565c.07167.35836.13533.65188.13533,1.01499 0,.0319-.22555.45111-.20299.47366" fill="none" stroke="#000" stroke-linecap="round" stroke-width="3"/>
  <path d="m590.38514,212.8988c0,.18286-1.34074-1.51381-.33833-3.51863 1.19572-2.39144 3.7956-3.62485 5.81927-5.14261 .25518-.19138.4511-.4511.67666-.67666 .58128-.58128-.28469-2.16777-.406-2.7743-.15761-.78803-.14446-2.02085.406-2.5713 .31533-.31534.594-.97751.74432-1.35332 .21191-.52978.14362-.91764.74433-1.21799 .43918-.21959.77586-.52326 1.21798-.74432 .36914-.18457.43011-.65722.54133-.87966 .04437-.08874 2.0523-.24799 2.09765-.27066" fill="none" stroke="#000" stroke-linecap="round" stroke-width="3"/>
 </g>
</svg>
