<?xml version="1.0" standalone="no"?>
<!DOCTYPE svg PUBLIC "-//W3C//DTD SVG 20010904//EN"
 "http://www.w3.org/TR/2001/REC-SVG-20010904/DTD/svg10.dtd">
<svg version="1.0" xmlns="http://www.w3.org/2000/svg"
 width="2048.000000pt" height="1152.000000pt" viewBox="0 0 2048.000000 1152.000000"
 preserveAspectRatio="xMidYMid meet">

<g transform="translate(0.000000,1152.000000) scale(0.100000,-0.100000)"
fill="#000000" stroke="none">
<path d="M0 5760 l0 -5760 10240 0 10240 0 0 5760 0 5760 -10240 0 -10240 0 0
-5760z m12063 2545 c465 -62 766 -321 867 -747 37 -159 40 -238 40 -1318 0
-1125 -2 -1175 -50 -1345 -97 -346 -319 -572 -659 -671 -176 -51 -240 -54
-1204 -55 l-892 0 -415 -381 c-525 -482 -574 -525 -633 -555 -125 -63 -251
-30 -310 81 -21 40 -22 50 -25 447 l-3 406 -152 6 c-181 8 -310 28 -432 68
-355 118 -565 373 -643 783 -15 83 -17 192 -17 1221 0 1064 1 1136 19 1230 76
405 290 662 647 778 68 23 216 52 299 60 19 2 805 4 1745 5 1434 1 1727 -1
1818 -13z"/>
<path d="M10167 7546 c-54 -20 -102 -60 -123 -103 -17 -35 -19 -61 -17 -288 3
-472 24 -1199 35 -1235 26 -84 90 -129 186 -130 99 0 164 43 187 125 15 57 38
755 39 1226 l1 275 -27 42 c-55 82 -186 124 -281 88z"/>
<path d="M10174 5479 c-55 -16 -127 -72 -158 -123 -24 -38 -31 -63 -34 -116
-7 -110 44 -197 142 -245 118 -58 232 -40 321 49 40 40 57 67 69 106 20 67 20
83 0 151 -40 134 -201 218 -340 178z"/>
</g>
</svg>
